<svg xmlns="http://www.w3.org/2000/svg" version="1.1" xmlns:xlink="http://www.w3.org/1999/xlink" xmlns:svgjs="http://svgjs.dev/svgjs" width="1500" height="1500" viewBox="0 0 1500 1500"><rect width="1500" height="1500" fill="#ffffff"></rect><g transform="matrix(0.6666666666666666,0,0,0.6666666666666666,249.39393939393943,640.154872502972)"><svg viewBox="0 0 396 87" data-background-color="#ffffff" preserveAspectRatio="xMidYMid meet" height="329" width="1500" xmlns="http://www.w3.org/2000/svg" xmlns:xlink="http://www.w3.org/1999/xlink"><g id="tight-bounds" transform="matrix(1,0,0,1,0.2400000000000091,0.07078765459624492)"><svg viewBox="0 0 395.52 86.8582822607931" height="86.8582822607931" width="395.52"><g><svg viewBox="0 0 532.4134542460129 116.92080827352358" height="86.8582822607931" width="395.52"><g transform="matrix(1,0,0,1,136.893454246013,16.159098683243855)"><svg viewBox="0 0 395.5199999999999 84.60261090703587" height="84.60261090703587" width="395.5199999999999"><g id="textblocktransform"><svg viewBox="0 0 395.5199999999999 84.60261090703587" height="84.60261090703587" width="395.5199999999999" id="textblock"><g><svg viewBox="0 0 395.5199999999999 84.60261090703587" height="84.60261090703587" width="395.5199999999999"><g transform="matrix(1,0,0,1,0,0)"><svg width="395.5199999999999" viewBox="1.3 -37.5 176.92999999999998 37.85" height="84.60261090703587" data-palette-color="#eb5e28"><path d="M28.35-31.85L25.9-26.9Q24-28.1 22.15-28.8 20.3-29.5 18.65-29.8 17-30.1 15.65-30.1L15.65-30.1Q13.05-30.1 11.5-29.1 9.95-28.1 9.95-26.2L9.95-26.2Q9.95-24.5 10.98-23.43 12-22.35 13.68-21.68 15.35-21 17.38-20.4 19.4-19.8 21.4-19.07 23.4-18.35 25.1-17.2 26.8-16.05 27.8-14.28 28.8-12.5 28.8-9.8L28.8-9.8Q28.8-6.7 27.1-4.42 25.4-2.15 22.43-0.9 19.45 0.35 15.6 0.35L15.6 0.35Q12.85 0.35 10.25-0.38 7.65-1.1 5.38-2.35 3.1-3.6 1.3-5.25L1.3-5.25 3.85-10.1Q5.65-8.45 7.68-7.3 9.7-6.15 11.78-5.55 13.85-4.95 15.7-4.95L15.7-4.95Q18.8-4.95 20.53-6.15 22.25-7.35 22.25-9.5L22.25-9.5Q22.25-11.25 21.23-12.33 20.2-13.4 18.53-14.1 16.85-14.8 14.83-15.35 12.8-15.9 10.78-16.63 8.75-17.35 7.08-18.45 5.4-19.55 4.38-21.3 3.35-23.05 3.35-25.75L3.35-25.75Q3.35-28.7 4.95-30.88 6.55-33.05 9.43-34.25 12.3-35.45 16.1-35.45L16.1-35.45Q19.5-35.45 22.7-34.45 25.9-33.45 28.35-31.85L28.35-31.85ZM55.35 0L55.35-15Q55.35-18.1 53.65-19.88 51.95-21.65 48.95-21.65L48.95-21.65Q45.4-21.6 43.37-19.15 41.35-16.7 41.35-13.05L41.35-13.05 39.75-13.05Q39.75-18 41.15-21 42.55-24 45.12-25.38 47.7-26.75 51.2-26.75L51.2-26.75Q54.3-26.75 56.52-25.5 58.75-24.25 59.92-21.98 61.1-19.7 61.1-16.5L61.1-16.5 61.1 0 55.35 0ZM35.6 0L35.6-37.1 41.35-37.1 41.35 0 35.6 0ZM80.2-26.75L80.2-26.75Q84.3-26.75 87.42-25.05 90.55-23.35 92.3-20.33 94.05-17.3 94.05-13.3L94.05-13.3Q94.05-9.3 92.3-6.25 90.55-3.2 87.42-1.5 84.3 0.2 80.2 0.2L80.2 0.2Q76.09 0.2 72.95-1.5 69.8-3.2 68.05-6.25 66.3-9.3 66.3-13.3L66.3-13.3Q66.3-17.3 68.05-20.33 69.8-23.35 72.95-25.05 76.09-26.75 80.2-26.75ZM80.2-22.1L80.2-22.1Q77.8-22.1 75.95-20.98 74.09-19.85 73.07-17.85 72.05-15.85 72.05-13.25L72.05-13.25Q72.05-10.6 73.07-8.6 74.09-6.6 75.95-5.48 77.8-4.35 80.2-4.35L80.2-4.35Q82.59-4.35 84.42-5.48 86.25-6.6 87.27-8.6 88.3-10.6 88.3-13.25L88.3-13.25Q88.3-15.85 87.27-17.85 86.25-19.85 84.42-20.98 82.59-22.1 80.2-22.1ZM114.99-26.75L114.99-21.55Q112.14-21.7 110.07-20.58 107.99-19.45 106.87-17.45 105.74-15.45 105.74-12.85L105.74-12.85 104.14-13.05Q104.14-17.5 105.44-20.55 106.74-23.6 109.19-25.18 111.64-26.75 114.99-26.75L114.99-26.75ZM100.04 0L100.04-26.55 105.79-26.55 105.79 0 100.04 0ZM126.49-32.85L126.49-8.4Q126.49-6.25 127.24-5.48 127.99-4.7 129.34-4.7L129.34-4.7Q130.24-4.7 131.22-5 132.19-5.3 133.34-5.9L133.34-5.9 134.79-1.75Q133.24-0.8 131.59-0.28 129.94 0.25 128.24 0.25L128.24 0.25Q126.24 0.25 124.54-0.53 122.84-1.3 121.82-3 120.79-4.7 120.79-7.4L120.79-7.4 120.79-32.85 126.49-32.85ZM117.04-21.5L117.04-25.6 134.34-25.6 134.34-21.5 117.04-21.5ZM140.09 0L140.09-26.55 145.79-26.55 145.79 0 140.09 0ZM142.94-37.5L142.94-37.5Q144.39-37.5 145.34-36.55 146.29-35.6 146.29-34.15L146.29-34.15Q146.29-32.75 145.34-31.78 144.39-30.8 142.94-30.8L142.94-30.8Q141.54-30.8 140.56-31.78 139.59-32.75 139.59-34.15L139.59-34.15Q139.59-35.6 140.56-36.55 141.54-37.5 142.94-37.5ZM155.38 0L155.38-28.2Q155.38-31.35 156.71-33.38 158.03-35.4 160.13-36.38 162.23-37.35 164.53-37.35L164.53-37.35Q165.73-37.35 166.96-37.02 168.19-36.7 169.24-36.15L169.24-36.15 168.03-31.75Q167.34-32.05 166.46-32.33 165.59-32.6 164.69-32.6L164.69-32.6Q163.73-32.6 162.91-32.23 162.09-31.85 161.59-31.03 161.09-30.2 161.09-28.9L161.09-28.9 161.09 0 155.38 0ZM151.88-21.5L151.88-25.6 168.03-25.6 168.03-21.5 151.88-21.5ZM172.03 0L172.03-26.55 177.73-26.55 177.73 0 172.03 0ZM174.88-37.5L174.88-37.5Q176.33-37.5 177.28-36.55 178.23-35.6 178.23-34.15L178.23-34.15Q178.23-32.75 177.28-31.78 176.33-30.8 174.88-30.8L174.88-30.8Q173.48-30.8 172.51-31.78 171.53-32.75 171.53-34.15L171.53-34.15Q171.53-35.6 172.51-36.55 173.48-37.5 174.88-37.5Z" opacity="1" transform="matrix(1,0,0,1,0,0)" fill="#eb5e28" class="wordmark-text-0" data-fill-palette-color="primary" id="text-0"></path></svg></g></svg></g></svg></g></svg></g><g><svg viewBox="0 0 116.92080827352359 116.92080827352358" height="116.92080827352358" width="116.92080827352359"><g><svg></svg></g><g id="icon-0"><svg viewBox="0 0 116.92080827352359 116.92080827352358" height="116.92080827352358" width="116.92080827352359"><g><path transform="scale(1.16921,1.16921)" d="M30 100c-16.569 0-30-13.431-30-30v-40c0-16.569 13.431-30 30-30h40c16.569 0 30 13.431 30 30v40c0 16.569-13.431 30-30 30z" fill="#eb5e28" fill-rule="nonzero" stroke="none" stroke-width="1" stroke-linecap="butt" stroke-linejoin="miter" stroke-miterlimit="10" stroke-dasharray="" stroke-dashoffset="0" font-family="none" font-weight="none" font-size="none" text-anchor="none" style="mix-blend-mode: normal" data-fill-palette-color="accent"></path></g><g transform="matrix(1,0,0,1,23.387965876683026,23.38416165470472)"><svg viewBox="0 0 70.14487652015754 70.15248496411414" height="70.15248496411414" width="70.14487652015754"><g><svg xmlns="http://www.w3.org/2000/svg" xmlns:xlink="http://www.w3.org/1999/xlink" version="1.1" x="0" y="0" viewBox="13.48187499248256 13.473949539302708 73.04517298456165 73.05309601661365" enable-background="new 0 0 100 100" xml:space="preserve" height="70.15248496411414" width="70.14487652015754" class="icon-dxe-0" data-fill-palette-color="quaternary" id="dxe-0"><g fill="#ffffff" data-fill-palette-color="quaternary"><path d="M81.842 18.16A15.9 15.9 0 0 0 70.53 13.474C66.258 13.474 62.24 15.138 59.218 18.16L44.468 32.912A4 4 0 0 0 50.124 38.569L64.876 23.817C66.386 22.307 68.394 21.475 70.529 21.475S74.673 22.307 76.183 23.818C77.693 25.328 78.525 27.335 78.525 29.471S77.693 33.615 76.183 35.125L61.433 49.875A4 4 0 0 0 67.089 55.532L81.841 40.78A15.9 15.9 0 0 0 86.527 29.469 15.9 15.9 0 0 0 81.842 18.16" fill="#ffffff" data-fill-palette-color="quaternary"></path><path d="M49.875 61.433L35.122 76.185A7.94 7.94 0 0 1 29.469 78.527 7.95 7.95 0 0 1 23.815 76.185C20.699 73.068 20.699 67.995 23.815 64.876L38.567 50.125A4 4 0 0 0 38.567 44.468 4 4 0 0 0 32.912 44.468L18.158 59.22C11.923 65.457 11.923 75.605 18.159 81.841A15.9 15.9 0 0 0 29.469 86.527C33.742 86.527 37.759 84.863 40.78 81.841L55.532 67.089A4 4 0 1 0 49.875 61.433" fill="#ffffff" data-fill-palette-color="quaternary"></path><path d="M35.985 64.016C36.765 64.797 37.79 65.188 38.813 65.188S40.861 64.797 41.641 64.016L64.015 41.642A4 4 0 0 0 58.359 35.985L35.985 58.359A4 4 0 0 0 35.985 64.016" fill="#ffffff" data-fill-palette-color="quaternary"></path></g></svg></g></svg></g></svg></g></svg></g></svg></g><defs></defs></svg><rect width="395.52" height="86.8582822607931" fill="none" stroke="none" visibility="hidden"></rect></g></svg></g></svg>