<svg xmlns="http://www.w3.org/2000/svg" version="1.1" xmlns:xlink="http://www.w3.org/1999/xlink" xmlns:svgjs="http://svgjs.dev/svgjs" width="1500" height="310" viewBox="0 0 1500 310"><g transform="matrix(1,0,0,1,-0.9090909090909918,0.19885708926659618)"><svg viewBox="0 0 396 82" data-background-color="#ffffff" preserveAspectRatio="xMidYMid meet" height="310" width="1500" xmlns="http://www.w3.org/2000/svg" xmlns:xlink="http://www.w3.org/1999/xlink"><g id="tight-bounds" transform="matrix(1,0,0,1,0.2400000000000091,-0.0526009074834235)"><svg viewBox="0 0 395.52 82.10520181496688" height="82.10520181496688" width="395.52"><g><svg viewBox="0 0 530.362077455452 110.0967976448346" height="82.10520181496688" width="395.52"><g transform="matrix(1,0,0,1,134.84207745545206,2.6373252234976476)"><svg viewBox="0 0 395.52 104.8221471978393" height="104.8221471978393" width="395.52"><g id="textblocktransform"><svg viewBox="0 0 395.52 104.8221471978393" height="104.8221471978393" width="395.52" id="textblock"><g><svg viewBox="0 0 395.52 104.8221471978393" height="104.8221471978393" width="395.52"><g transform="matrix(1,0,0,1,0,0)"><svg width="395.52" viewBox="0.65 -38.7 148.07999999999998 39.25" height="104.8221471978393" data-palette-color="#1f55b3"><path d="M0.65-4.55L4.55-9.95Q8.8-5.7 13.05-5.7L13.05-5.7Q15.25-5.7 16.57-6.73 17.9-7.75 17.9-9.38 17.9-11 16.3-12.13 14.7-13.25 12.43-14.1 10.15-14.95 7.9-16.03 5.65-17.1 4.05-19.1 2.45-21.1 2.45-23.95L2.45-23.95Q2.45-28.45 6.2-31.73 9.95-35 15.1-35L15.1-35Q17.45-35 19.65-34.5 21.85-34 23.9-33.05L23.9-33.05 20.5-25.75Q19.1-26.85 16.68-27.78 14.25-28.7 12.43-28.7 10.6-28.7 9.47-27.83 8.35-26.95 8.35-25.5 8.35-24.05 9.95-22.93 11.55-21.8 13.83-20.95 16.1-20.1 18.38-19.07 20.65-18.05 22.25-16.05 23.85-14.05 23.85-11.2L23.85-11.2Q23.85-6.5 20.1-2.98 16.35 0.55 11.35 0.55L11.35 0.55Q7.6 0.55 4.7-1.25L4.7-1.25Q2.15-2.8 1.1-4L1.1-4 0.65-4.55ZM42.65-12.65Q42.65-16.1 42.05-17.25 41.45-18.4 39.25-18.4 37.05-18.4 34.25-16.65L34.25-16.65 34.25-13 34.8-1.25 28.05 0 28.65-12.15 28.05-37.45 34.9-38.7 34.25-25.75 34.25-19.9Q35-20.9 35.95-21.85 36.9-22.8 38.9-24 40.9-25.2 43.17-25.2 45.45-25.2 47-23.43 48.55-21.65 48.55-18.6L48.55-18.6 48.25-13 48.8-1 42.05 0.25 42.65-12.65ZM52.8-10.45Q52.8-16.85 56.25-21.3 59.7-25.75 64.32-25.75 68.95-25.75 71.52-22.75 74.09-19.75 74.09-14.8L74.09-14.8Q74.09-8.2 70.77-3.83 67.45 0.55 62.4 0.55L62.4 0.55Q58.25 0.55 55.52-2.58 52.8-5.7 52.8-10.45L52.8-10.45ZM68.5-12.2L68.5-12.2Q68.5-19.45 63.55-19.45L63.55-19.45Q58.4-19.45 58.4-12.65L58.4-12.65Q58.4-9.1 59.85-7.1 61.3-5.1 63.67-5.1 66.05-5.1 67.27-6.93 68.5-8.75 68.5-12.2ZM77.84-24.15L77.84-24.15 83.89-25.45Q84.34-21.6 84.49-18.15L84.49-18.15Q89.04-25.2 93.04-25.2L93.04-25.2 92.49-17.4Q89.59-17.4 87.92-16.88 86.24-16.35 84.49-14.8L84.49-14.8 84.49-13 85.04-1.25 78.34 0 78.94-12.15Q78.74-18.85 77.84-24.15ZM95.24-24.2L98.14-24.2 98.14-29.65 104.89-30.95 104.24-24.2 110.29-24.2 109.74-20.1 104.04-20.1 103.79-9.65Q103.79-7.3 104.24-6.53 104.69-5.75 105.89-5.75 107.09-5.75 109.09-6.3L109.09-6.3 109.39-2.75Q106.09 0 103.59 0 101.09 0 99.49-1.83 97.89-3.65 97.89-6.6L97.89-6.6 98.19-12.2 98.14-20.1 94.69-20.1 95.24-24.2ZM113.94-24.2L120.64-25.45 120.04-13 120.59-1.25 113.89 0 114.49-12.15 113.94-24.2ZM113.59-32.77Q113.59-34.45 114.89-35.77 116.19-37.1 117.89-37.1 119.59-37.1 120.49-36.18 121.39-35.25 121.39-33.4 121.39-31.55 120.11-30.23 118.84-28.9 117.16-28.9 115.49-28.9 114.54-30 113.59-31.1 113.59-32.77ZM141.04-38.25L139.49-32.55Q137.64-33 136.14-33 134.64-33 133.96-32.1 133.29-31.2 133.29-28.95L133.29-28.95 133.24-24.2 138.64-24.2 138.09-20.1 133.24-20.1 133.19-13 133.74-1.25 126.99 0 127.59-12.15 127.39-20.1 124.09-20.1 124.64-24.2 127.29-24.2 127.24-28Q127.24-32.45 129.99-35.58 132.74-38.7 136.69-38.7L136.69-38.7Q138.79-38.7 141.04-38.25L141.04-38.25ZM141.28-24.2L147.98-25.45 147.38-13 147.93-1.25 141.23 0 141.83-12.15 141.28-24.2ZM140.93-32.77Q140.93-34.45 142.23-35.77 143.53-37.1 145.23-37.1 146.93-37.1 147.83-36.18 148.73-35.25 148.73-33.4 148.73-31.55 147.46-30.23 146.18-28.9 144.51-28.9 142.83-28.9 141.88-30 140.93-31.1 140.93-32.77Z" opacity="1" transform="matrix(1,0,0,1,0,0)" fill="#1f55b3" class="wordmark-text-0" data-fill-palette-color="primary" id="text-0"></path></svg></g></svg></g></svg></g></svg></g><g><svg viewBox="0 0 110.09608423357496 110.0967976448346" height="110.0967976448346" width="110.09608423357496"><g><svg xmlns="http://www.w3.org/2000/svg" xmlns:xlink="http://www.w3.org/1999/xlink" version="1.1" x="0" y="0" viewBox="14.870000000000001 14.867999999999999 482.2606250009381 482.26375" enable-background="new 0 0 512 512" xml:space="preserve" height="110.0967976448346" width="110.09608423357496" class="icon-icon-0" data-fill-palette-color="accent" id="icon-0"><path fill="#ff585f" d="M459.654 233.373L369.123 323.873C319.154 373.873 238.092 373.873 188.123 323.873 180.248 316.029 174.092 307.185 168.685 298.06L210.748 255.997C212.748 253.981 215.217 252.825 217.576 251.466 220.482 261.404 225.56 270.81 233.373 278.622 258.326 303.591 298.936 303.56 323.873 278.622L414.373 188.122C439.342 163.153 439.342 122.559 414.373 97.606 389.435 72.653 348.842 72.653 323.873 97.606L291.685 129.825C265.576 119.653 237.435 116.919 210.044 120.934L278.622 52.356C328.622 2.372 409.653 2.372 459.653 52.356 509.623 102.342 509.623 183.389 459.654 233.373M220.326 382.186L188.123 414.405C163.17 439.343 122.56 439.343 97.607 414.405 72.654 389.436 72.654 348.842 97.607 323.874L188.123 233.374C213.092 208.405 253.67 208.405 278.623 233.374 286.42 241.171 291.498 250.577 294.436 260.499 296.811 259.124 299.249 257.999 301.249 255.999L343.312 213.952C337.937 204.796 331.749 195.983 323.874 188.124 273.905 138.14 192.843 138.14 142.858 188.124L52.358 278.624C2.374 328.624 2.374 409.655 52.358 459.655 102.342 509.624 183.389 509.624 233.374 459.655L301.968 391.061C274.561 395.092 246.42 392.342 220.326 382.186" data-fill-palette-color="accent"></path></svg></g></svg></g></svg></g><defs></defs></svg><rect width="395.52" height="82.10520181496688" fill="none" stroke="none" visibility="hidden"></rect></g></svg></g></svg>